<svg version="1.0" xmlns="http://www.w3.org/2000/svg" width="468" height="468" viewBox="0 0 351 351"><path d="M150.5 28.6c-34.7 5-56 13.2-67.9 26.5-9.4 10.5-11 18.1-10.4 49.4.5 18.9.7 21.6 2.8 27 3.1 8 13.6 18.6 23.6 23.7 38.9 20.2 106.9 20.2 145.8 0 10-5.1 20.5-15.7 23.6-23.7 2.1-5.4 2.3-8.1 2.8-27 .6-31.6-1-39.1-10.8-49.8-10.1-11-29.2-19.4-55.1-24.3-8.1-1.6-47.2-2.8-54.4-1.8zm52 22.8c17.9 3.3 31.7 8.7 39.5 15.4 17.3 14.8 1.9 31.9-35.7 39.7-33.2 6.8-78.7 2.1-99.6-10.5-27.8-16.7-8.5-38.6 40.2-45.5 12.6-1.9 43.3-1.3 55.6.9z"/><path d="M72.5 156.6c-.4 4.2-.5 16.2-.3 26.8.7 24.4 1.7 27.8 12.2 38.2 11.1 10.9 26.1 17.6 50.9 22.6 9.9 2 14.2 2.3 36.2 2.3 22 0 26.3-.3 36.2-2.3 15.4-3.1 23.2-5.6 34.3-11 12.3-6 22.5-15.6 26.1-24.7 2.3-5.8 2.3-7 2.4-32.2 0-14.4-.3-26.5-.7-26.8-.4-.4-3.1 1.4-5.9 3.9-13 11.7-31.2 19.2-58.9 24.3-13.5 2.5-53.5 2.5-67 0-27.6-5.1-45.9-12.6-58.7-24.1-2.8-2.5-5.3-4.6-5.6-4.6-.3 0-.8 3.4-1.2 7.6z"/><path d="M72.6 231.2c-.9 7.9-.7 38.4.3 45.6 3.3 22.3 25.1 37.3 65.4 44.9 13.1 2.5 53.3 2.5 66.4 0 26.4-5 45.6-13.5 55.7-24.8 5.9-6.5 8.5-12.3 9.8-21.1 1.1-7.9.7-48.2-.4-49.4-.4-.4-2.5.9-4.6 2.8-20.9 18.9-58.6 29.1-101.2 27.5-24.7-1-42.4-4.4-61-11.8-7.9-3.2-21.9-12-25.9-16.3-1.4-1.4-2.8-2.6-3.1-2.6-.4 0-1 2.4-1.4 5.2z"/></svg>