<svg xmlns="http://www.w3.org/2000/svg" xmlns:xlink="http://www.w3.org/1999/xlink" viewBox="0 0 32 32"><defs><path id="a" d="M3.885 3.216h24.23v26.575H3.885z"/></defs><clipPath id="b"><use xlink:href="#a" overflow="visible"/></clipPath><g clip-path="url(#b)"><path d="M27.498 19.24c-.473 1.844-2.898 4.137-4.824 4.561a35.84 35.84 0 01-7.605.606.182.182 0 00-.134.054l-2.365 2.396-2.515 2.549a.295.295 0 01-.322.069.294.294 0 01-.185-.27v-5.227a.183.183 0 00-.149-.177h-.002c-1.927-.424-4.351-2.716-4.825-4.561a24.756 24.756 0 010-10.754c.475-1.845 2.898-4.138 4.825-4.561a35.83 35.83 0 0113.276 0c1.928.424 4.351 2.716 4.824 4.561.79 3.542.79 7.211.001 10.754z" fill="#7d3daf"/><path d="M20.227 21.653c-.296-.089-.579-.148-.84-.256-2.717-1.112-5.217-2.548-7.197-4.748-1.126-1.251-2.007-2.663-2.752-4.158-.354-.709-.652-1.445-.955-2.177-.277-.667.131-1.357.56-1.859.403-.472.921-.833 1.483-1.099.438-.208.87-.088 1.19.279.692.792 1.327 1.625 1.841 2.544.316.565.23 1.256-.344 1.64-.139.093-.266.204-.396.309a1.298 1.298 0 00-.299.311.845.845 0 00-.058.749c.707 1.918 1.899 3.41 3.854 4.213.313.128.628.278.988.236.604-.07.8-.723 1.223-1.065.413-.334.942-.338 1.387-.06.444.281.879.574 1.307.879.422.297.841.586 1.23.924.374.325.503.751.292 1.192-.385.807-.946 1.479-1.755 1.908-.229.12-.502.159-.759.238-.296-.089.257-.079 0 0zM16.043 6.431c3.553.098 6.472 2.426 7.097 5.893.106.591.144 1.195.192 1.795.02.252-.125.492-.4.495-.285.003-.413-.232-.432-.484-.036-.499-.062-1.001-.131-1.495C22 10.022 19.89 7.86 17.255 7.397c-.396-.07-.802-.089-1.204-.13-.254-.027-.586-.042-.643-.353-.047-.261.176-.469.428-.483.069-.004.138 0 .207 0-.069 0 3.553.098 0 0z" fill="#fff"/><path d="M21.443 13.341c-.006.043-.009.146-.035.244-.094.352-.635.396-.76.041a1.067 1.067 0 01-.043-.339c-.001-.743-.165-1.485-.544-2.131a4 4 0 00-1.685-1.561 4.91 4.91 0 00-1.343-.407c-.202-.033-.407-.053-.61-.081-.247-.034-.379-.189-.367-.429.011-.225.177-.387.425-.372.816.046 1.603.22 2.328.598 1.474.771 2.316 1.987 2.562 3.612.011.074.029.146.035.22.014.181.022.364.037.605-.006.044-.014-.241 0 0z" fill="#fff"/><path d="M19.233 13.256c-.298.005-.456-.157-.487-.427-.021-.187-.038-.377-.083-.56a1.572 1.572 0 00-.589-.913 1.55 1.55 0 00-.48-.229c-.218-.062-.444-.045-.662-.097-.236-.058-.367-.246-.33-.465a.425.425 0 01.45-.338c1.377.098 2.362.801 2.503 2.402.01.113.021.232-.004.34a.353.353 0 01-.318.287c.135-.009-.298.005 0 0z" fill="#fff"/></g></svg>