<?xml version="1.0" encoding="iso-8859-1"?>
<!-- Generator: Adobe Illustrator 23.0.0, SVG Export Plug-In . SVG Version: 6.00 Build 0)  -->
<svg version="1.1" id="Layer_1" xmlns="http://www.w3.org/2000/svg" xmlns:xlink="http://www.w3.org/1999/xlink" x="0px" y="0px"
	 viewBox="0 0 32 32" style="enable-background:new 0 0 32 32;" xml:space="preserve">
<g>
	<defs>
		<rect id="SVGID_1_" x="3.885" y="3.216" width="24.23" height="26.575"/>
	</defs>
	<clipPath id="SVGID_2_">
		<use xlink:href="#SVGID_1_"  style="overflow:visible;"/>
	</clipPath>
	<g style="clip-path:url(#SVGID_2_);">
		<path style="fill:#7D3DAF;" d="M27.498,19.24c-0.473,1.844-2.898,4.137-4.824,4.561c-2.505,0.472-5.055,0.675-7.605,0.606
			c-0.025-0.001-0.05,0.004-0.073,0.013s-0.044,0.023-0.061,0.041l-2.365,2.396l-2.515,2.549c-0.041,0.042-0.093,0.071-0.15,0.083
			c-0.057,0.012-0.117,0.007-0.172-0.014c-0.055-0.022-0.101-0.059-0.134-0.107c-0.033-0.048-0.051-0.105-0.051-0.163v-5.227
			c0-0.086-0.063-0.16-0.149-0.177H9.397c-1.927-0.424-4.351-2.716-4.825-4.561c-0.788-3.543-0.788-7.212,0-10.754
			c0.475-1.845,2.898-4.138,4.825-4.561c4.386-0.827,8.89-0.827,13.276,0c1.928,0.424,4.351,2.716,4.824,4.561
			C28.287,12.028,28.287,15.697,27.498,19.24z"/>
		<path style="fill:#FFFFFF;" d="M20.227,21.653c-0.296-0.089-0.579-0.148-0.84-0.256c-2.717-1.112-5.217-2.548-7.197-4.748
			c-1.126-1.251-2.007-2.663-2.752-4.158c-0.354-0.709-0.652-1.445-0.955-2.177c-0.277-0.667,0.131-1.357,0.56-1.859
			c0.403-0.472,0.921-0.833,1.483-1.099c0.438-0.208,0.87-0.088,1.19,0.279c0.692,0.792,1.327,1.625,1.841,2.544
			c0.316,0.565,0.23,1.256-0.344,1.64c-0.139,0.093-0.266,0.204-0.396,0.309c-0.114,0.093-0.221,0.186-0.299,0.311
			c-0.143,0.229-0.149,0.5-0.058,0.749c0.707,1.918,1.899,3.41,3.854,4.213c0.313,0.128,0.628,0.278,0.988,0.236
			c0.604-0.07,0.8-0.723,1.223-1.065c0.413-0.334,0.942-0.338,1.387-0.06c0.444,0.281,0.879,0.574,1.307,0.879
			c0.422,0.297,0.841,0.586,1.23,0.924c0.374,0.325,0.503,0.751,0.292,1.192c-0.385,0.807-0.946,1.479-1.755,1.908
			C20.757,21.535,20.484,21.574,20.227,21.653C19.931,21.564,20.484,21.574,20.227,21.653L20.227,21.653z M16.043,6.431
			c3.553,0.098,6.472,2.426,7.097,5.893c0.106,0.591,0.144,1.195,0.192,1.795c0.02,0.252-0.125,0.492-0.4,0.495
			c-0.285,0.003-0.413-0.232-0.432-0.484c-0.036-0.499-0.062-1.001-0.131-1.495C22,10.022,19.89,7.86,17.255,7.397
			c-0.396-0.07-0.802-0.089-1.204-0.13c-0.254-0.027-0.586-0.042-0.643-0.353c-0.047-0.261,0.176-0.469,0.428-0.483
			C15.905,6.427,15.974,6.431,16.043,6.431C15.974,6.431,19.596,6.529,16.043,6.431z"/>
		<path style="fill:#FFFFFF;" d="M21.443,13.341c-0.006,0.043-0.009,0.146-0.035,0.244c-0.094,0.352-0.635,0.396-0.76,0.041
			c-0.037-0.105-0.042-0.226-0.043-0.339c-0.001-0.743-0.165-1.485-0.544-2.131c-0.395-0.672-0.981-1.215-1.685-1.561
			c-0.423-0.204-0.879-0.331-1.343-0.407c-0.202-0.033-0.407-0.053-0.61-0.081c-0.247-0.034-0.379-0.189-0.367-0.429
			c0.011-0.225,0.177-0.387,0.425-0.372c0.816,0.046,1.603,0.22,2.328,0.598c1.474,0.771,2.316,1.987,2.562,3.612
			c0.011,0.074,0.029,0.146,0.035,0.22C21.42,12.917,21.428,13.1,21.443,13.341C21.437,13.385,21.429,13.1,21.443,13.341
			L21.443,13.341z"/>
		<path style="fill:#FFFFFF;" d="M19.233,13.256c-0.298,0.005-0.456-0.157-0.487-0.427c-0.021-0.187-0.038-0.377-0.083-0.56
			c-0.089-0.36-0.283-0.693-0.589-0.913c-0.145-0.103-0.308-0.181-0.48-0.229c-0.218-0.062-0.444-0.045-0.662-0.097
			c-0.236-0.058-0.367-0.246-0.33-0.465c0.034-0.199,0.23-0.354,0.45-0.338c1.377,0.098,2.362,0.801,2.503,2.402
			c0.01,0.113,0.021,0.232-0.004,0.34C19.507,13.154,19.368,13.247,19.233,13.256C19.368,13.247,18.935,13.261,19.233,13.256z"/>
	</g>
</g>
</svg>
