<svg width="118" height="118" fill="none" xmlns="http://www.w3.org/2000/svg"><path d="M118 43.66a153.98 153.98 0 01-7.08 35.906 166.97 166.97 0 01-15.34 33.461c-11.969 2.782-24.19 4.214-36.411 4.214-12.306 0-24.528-1.348-36.496-4.214h-.084C9.86 91.871 2.107 68.187 0 43.66v-.084A160.657 160.657 0 0126.971 18.71C36.917 11.463 47.706 5.48 59.084.76A160.499 160.499 0 0191.03 18.627c9.945 7.249 18.964 15.677 26.971 25.033z" fill="#2D3238"/><path d="M41.216 59.421v2.782h-8.092V75.35h-3.287V59.42h11.379zM50.403 59c2.107 0 7.586.927 7.586 8.344s-5.479 8.429-7.586 8.429-7.586-.927-7.586-8.344c0-7.418 5.479-8.429 7.586-8.429zm0 13.907c1.77 0 4.299-1.096 4.299-5.563s-2.529-5.563-4.299-5.563c-1.77 0-4.298 1.096-4.298 5.563s2.444 5.563 4.298 5.563zm20.397-8.26c-.253-1.77-1.77-2.95-3.54-2.781-1.601 0-4.046 1.095-4.046 5.647 0 2.866 1.18 5.478 4.046 5.478 1.77.085 3.287-1.264 3.54-3.034h3.287c-.674 3.456-2.95 5.9-6.911 5.9-4.215 0-7.249-2.866-7.249-8.344 0-5.479 3.203-8.429 7.333-8.429 4.72 0 6.659 3.287 6.827 5.647l-3.287-.084zm12.559 10.704H80.07V62.12h-4.804v-2.782h12.896v2.782h-4.804v13.23zM18.88 49.644l1.939.59c-.17.59-.338 1.012-.59 1.349a2.74 2.74 0 01-1.096.843c-.422.168-.927.253-1.602.253-.758 0-1.432-.085-1.938-.338a2.813 2.813 0 01-1.264-1.18c-.338-.59-.506-1.348-.506-2.191 0-1.18.337-2.107.927-2.781.674-.675 1.517-.928 2.697-.928.927 0 1.602.169 2.192.59.59.422.927.928 1.18 1.686l-1.94.422c-.083-.253-.168-.422-.252-.506a1.015 1.015 0 00-.421-.422c-.169-.084-.422-.168-.59-.168-.506 0-.927.168-1.18.59a2.974 2.974 0 00-.337 1.433c0 .843.084 1.348.337 1.685.253.338.59.422 1.011.422.422 0 .759-.084 1.012-.337.252-.253.337-.506.42-1.012zm2.781-.59c0-1.18.337-2.107 1.012-2.781.674-.674 1.601-1.012 2.781-1.012 1.18 0 2.107.338 2.781 1.012.675.674 1.012 1.517 1.012 2.697a5.2 5.2 0 01-.422 2.107c-.252.59-.674.927-1.264 1.264-.59.338-1.18.422-2.023.422-.843 0-1.517-.169-2.023-.422-.505-.252-.927-.674-1.264-1.264-.337-.59-.59-1.18-.59-2.023zm2.276 0c0 .759.168 1.265.421 1.602.253.337.675.505 1.096.505.506 0 .843-.168 1.096-.505.253-.337.421-.843.421-1.686 0-.674-.168-1.18-.421-1.517-.253-.337-.675-.506-1.096-.506-.421 0-.843.169-1.096.506-.253.337-.421.843-.421 1.601zm6.153 0c0-1.18.337-2.107 1.011-2.781.675-.674 1.602-1.012 2.782-1.012s2.107.338 2.781 1.012c.674.674 1.012 1.517 1.012 2.697a5.2 5.2 0 01-.422 2.107c-.253.59-.674.927-1.264 1.264-.59.338-1.18.422-2.023.422-.843 0-1.517-.169-2.023-.422-.506-.252-.927-.674-1.264-1.264-.337-.59-.59-1.18-.59-2.023zm2.191 0c0 .759.169 1.265.422 1.602.253.337.674.505 1.095.505.506 0 .843-.168 1.096-.505.253-.337.422-.843.422-1.686 0-.674-.169-1.18-.422-1.517-.253-.337-.674-.506-1.096-.506-.421 0-.842.169-1.095.506-.253.337-.422.843-.422 1.601zm5.985-3.624h6.827v1.77h-2.276v5.479h-2.276V47.2h-2.275v-1.77zm7.838 0h4.214c.675 0 1.265.169 1.602.506.337.337.59.758.59 1.264 0 .421-.169.759-.422 1.096-.168.168-.421.337-.758.505.505.085.927.338 1.18.675.253.337.337.674.337 1.18 0 .337-.084.674-.253 1.011-.169.337-.421.506-.674.674-.169.085-.506.169-.843.253-.506.085-.843.085-1.012.085h-3.877V45.43h-.084zm2.276 2.781h1.011c.337 0 .59-.084.759-.168.168-.084.168-.253.168-.506s-.084-.337-.168-.506c-.085-.168-.337-.168-.675-.168h-1.011v1.348h-.084zm0 2.866h1.18c.421 0 .674-.084.843-.168.168-.085.168-.338.168-.59 0-.253-.084-.422-.253-.506-.168-.084-.421-.169-.843-.169H48.38v1.433zm5.563-5.647h5.984v1.517h-3.793v1.18h3.456v1.517h-3.456v1.433h3.877v1.602h-6.068V45.43zm6.827 0h6.827v1.77h-2.275v5.479h-2.276V47.2H60.77v-1.77zm12.643 4.214l1.939.59c-.17.59-.338 1.012-.59 1.349a2.74 2.74 0 01-1.096.843c-.422.168-.927.253-1.602.253-.758 0-1.432-.085-1.938-.338a2.813 2.813 0 01-1.264-1.18 4.207 4.207 0 01-.59-2.191c0-1.18.337-2.107.927-2.781.674-.675 1.517-.928 2.697-.928.927 0 1.601.169 2.191.59.59.422.927.928 1.18 1.686l-1.938.422c-.085-.253-.169-.422-.253-.506a1.016 1.016 0 00-.422-.422c-.168-.084-.421-.168-.59-.168-.505 0-.927.168-1.18.59a2.976 2.976 0 00-.337 1.433c0 .843.085 1.348.337 1.685.253.338.59.422 1.012.422.421 0 .758-.084 1.011-.337.253-.253.422-.506.506-1.012zm2.528-4.214h6.828v1.77h-2.276v5.479h-2.276V47.2h-2.276v-1.77zm7.839 0h4.214c.674 0 1.264.169 1.602.506.337.337.59.758.59 1.264 0 .421-.17.759-.422 1.096-.168.168-.421.337-.758.505.505.085.927.338 1.18.675.252.337.337.674.337 1.18 0 .337-.085.674-.253 1.011-.169.337-.422.506-.674.674-.17.085-.506.169-.843.253-.506.085-.843.085-1.012.085h-3.877V45.43h-.084zm2.191 2.781h1.012c.337 0 .59-.084.758-.168.169-.084.169-.253.169-.506s-.084-.337-.169-.506c-.084-.168-.337-.168-.674-.168H85.97v1.348zm0 2.866h1.18c.422 0 .675-.084.843-.168.169-.085.253-.338.253-.59 0-.253-.084-.422-.253-.506-.168-.084-.421-.169-.843-.169h-1.18v1.433zM98.53 45.43v7.249h-2.107v-3.962l-2.697 3.962h-2.107V45.43h2.107v4.046l2.697-4.046h2.107zm1.517 0h5.984v1.517h-3.793v1.18h3.456v1.517h-3.456v1.433h3.877v1.602h-6.068V45.43z" fill="#fff"/><path d="M111.594 45.346a139.158 139.158 0 01-6.321 32.028c-3.456 10.452-8.007 20.482-13.654 29.837-10.705 2.445-21.578 3.793-32.45 3.793-10.957 0-21.83-1.18-32.535-3.793h-.084C15.171 88.331 8.26 67.176 6.406 45.346v-.085c7.164-8.26 15.171-15.677 24.021-22.167 8.85-6.49 18.459-11.8 28.657-16.014 10.03 4.214 19.639 9.524 28.489 15.93 8.85 6.49 16.857 13.991 24.021 22.336z" stroke="#fff" stroke-width="3" stroke-miterlimit="10"/></svg>