<svg xmlns="http://www.w3.org/2000/svg" viewBox="0 0 125.123 69.153"><path d="M62.485 54.978a30.57 30.57 0 01-18.972 10.656C26.75 68.156 11.117 56.612 8.595 39.85 6.072 23.087 17.617 7.454 34.38 4.931c14.395-2.165 27.958 6.043 33.098 19.021C62.384 8.108 46.425-2.167 29.433.389 10.552 3.23-2.451 20.838.39 39.72c2.84 18.881 20.449 31.884 39.33 29.043 9.5-1.429 17.511-6.598 22.765-13.785z" fill="#fff"/><path d="M54.024 50.823c-4.774 5.478-12.153 8.481-19.871 7.32a21.91 21.91 0 01-13.599-7.638 24.7 24.7 0 0016.318 9.881c9.296 1.399 18.161-2.561 23.461-9.563h-6.309zM40.699 14.631c6.634.998 12.123 4.864 15.409 10.146h6.599c-3.492-6.95-10.186-12.157-18.462-13.402-12.18-1.832-23.619 5.533-27.271 16.89 3.685-9.302 13.407-15.186 23.725-13.634zm3.589 27.87l3.897-14.246h5.268l-6.585 19.568h-5.16l-6.532-19.568h5.228l3.884 14.246zm22.724-2.983h-7.418v4.677h8.763v3.629h-13.48V28.256h13.506v3.642h-8.789v4.126h7.418v3.494zm10.537 1.384h-2.554v6.921h-4.717V28.256h7.7c2.32 0 4.135.515 5.443 1.544 1.308 1.029 1.962 2.484 1.962 4.363 0 1.361-.275 2.488-.827 3.383-.551.895-1.413 1.62-2.587 2.175l4.086 7.9v.202h-5.054l-3.452-6.921zm-2.553-3.628h2.983c.896 0 1.57-.235 2.022-.707s.679-1.13.679-1.974-.229-1.507-.686-1.987-1.129-.721-2.016-.721h-2.983v5.389zm29.579 10.549h-4.69L92.95 35.648v12.176h-4.717V28.256h4.717l6.921 12.176V28.256h4.704v19.567zm14.34-3.655h-6.465l-1.129 3.655h-5.039l7.176-19.568h4.436l7.229 19.568h-5.066l-1.142-3.655zm-5.336-3.642h4.207l-2.11-6.787-2.097 6.787z" fill="#fff"/></svg>