<?xml version="1.0" encoding="UTF-8"?><!DOCTYPE svg PUBLIC "-//W3C//DTD SVG 1.1//EN" "http://www.w3.org/Graphics/SVG/1.1/DTD/svg11.dtd"><svg xmlns="http://www.w3.org/2000/svg" xmlns:xlink="http://www.w3.org/1999/xlink"><defs>
        <filter id="a" filterUnits="userSpaceOnUse">
            <feColorMatrix values="1 0 0 0 0 0 1 0 0 0 0 0 1 0 0 0 0 0 1 0"/>
        </filter>
    
        <filter id="d" filterUnits="userSpaceOnUse">
            <feColorMatrix values="1 0 0 0 0 0 1 0 0 0 0 0 1 0 0 0 0 0 1 0"/>
        </filter>
    
        <filter id="g" filterUnits="userSpaceOnUse">
            <feColorMatrix values="1 0 0 0 0 0 1 0 0 0 0 0 1 0 0 0 0 0 1 0"/>
        </filter>
    </defs><symbol id="ico-mono-arrow-hand" viewBox="0 0 30 25.714">
    <path d="M28.728 7.701c-.848-.848-1.853-1.272-3.014-1.272h-6.261c.246-.67.368-1.384.368-2.143 0-1.361-.455-2.416-1.365-3.164C17.547.374 16.395 0 15 0c-.424 0-.812.098-1.164.293a2.874 2.874 0 00-.921.828 9.6 9.6 0 00-.678 1.055c-.19.346-.397.748-.62 1.205-.223.458-.407.804-.552 1.038-.39.614-.949 1.333-1.674 2.16a13.23 13.23 0 01-.895 1.005 4.701 4.701 0 01-.402.376 53.67 53.67 0 01-.376.302 1.556 1.556 0 01-.394.234.993.993 0 01-.36.075H2.143c-.592 0-1.097.21-1.515.628A2.064 2.064 0 000 10.714v10.714c0 .591.209 1.096.628 1.515.419.418.924.628 1.515.628h4.821c.658 0 1.903.33 3.733.988 2.109.77 3.906 1.155 5.391 1.155 1.574 0 2.84-.449 3.8-1.348.96-.898 1.434-2.123 1.423-3.675.67-.859 1.005-1.853 1.005-2.98 0-.245-.017-.485-.05-.72.368-.636.575-1.3.62-1.992h2.829c1.172 0 2.179-.424 3.022-1.272C29.579 12.88 30 11.87 30 10.698c0-1.15-.424-2.149-1.272-2.997zm-24.76 13.41a1.03 1.03 0 01-.753.318 1.03 1.03 0 01-.753-.318 1.03 1.03 0 01-.318-.753c0-.29.106-.541.318-.753a1.03 1.03 0 01.753-.318c.29 0 .541.106.753.318.212.212.318.463.318.753s-.106.541-.318.753zm23.253-8.889a2.06 2.06 0 01-1.507.636h-5.541c.167.19.307.455.418.795.112.34.168.65.168.929 0 .77-.296 1.434-.887 1.992.201.357.301.742.301 1.155 0 .413-.098.823-.293 1.23-.195.407-.461.7-.795.879.056.334.084.647.084.938 0 1.863-1.055 2.795-3.164 2.795-.904 0-1.906-.179-3.005-.535a316.83 316.83 0 01-3.239-1.071c-1.06-.357-1.992-.536-2.796-.536h-.537V10.715h.536c.792 0 1.574-.318 2.344-.955.335-.279.899-.871 1.691-1.775.804-.904 1.429-1.713 1.875-2.427.145-.234.352-.597.62-1.088.735-1.551 1.238-2.327 1.506-2.327.792 0 1.437.17 1.934.51.497.34.745.884.745 1.632 0 .48-.084.952-.251 1.415a5.118 5.118 0 01-.552 1.138 9.503 9.503 0 00-.552.921c-.167.318-.251.589-.251.812h9.643c.558 0 1.055.215 1.49.644.435.43.653.929.653 1.498a2.073 2.073 0 01-.638 1.509z"/>
</symbol><symbol id="ico-mono-auto" viewBox="0 0 612 562">
    <path d="M21.5 352.5V92.1c0-14.5 11.7-26.2 26.2-26.2H308c14.5 0 26.2 11.7 26.2 26.2v260.4c0 4.8-3.9 8.7-8.7 8.7H30.2c-4.8.1-8.7-3.9-8.7-8.7zm210.1 89.2c0 30-24.3 54.3-54.3 54.3S123 471.7 123 441.7c0-30 24.3-54.3 54.3-54.3s54.3 24.3 54.3 54.3zm-27.1 0c0-15-12.2-27.2-27.2-27.2s-27.2 12.2-27.2 27.2 12.2 27.2 27.2 27.2 27.2-12.2 27.2-27.2zm-74-54.3H8.7c-4.8 0-8.7 3.9-8.7 8.7v26.5c0 4.8 3.9 8.7 8.7 8.7h97.6c2.6-17.4 11.4-32.9 24.2-43.9zm385.4 54.3c0 30-24.3 54.3-54.3 54.3-30 0-54.3-24.3-54.3-54.3 0-30 24.3-54.3 54.3-54.3 30 0 54.3 24.3 54.3 54.3zm-27.1 0c0-15-12.2-27.2-27.2-27.2s-27.2 12.2-27.2 27.2 12.2 27.2 27.2 27.2 27.2-12.2 27.2-27.2zM612 396.1v26.5c0 4.8-3.9 8.7-8.7 8.7h-70.7c-5.1-34.7-34.9-61.4-71-61.4s-65.9 26.7-71 61.4H248.3c-2.5-17.5-11.4-32.9-24.2-44h135V137.6c0-9.6 7.8-17.5 17.5-17.5H459c23.2 0 44.9 11.5 57.9 30.8l53.2 78.7c7.8 11.5 12 25.2 12 39.1v118.7h21.3c4.7 0 8.6 3.9 8.6 8.7zm-88.6-164.5l-42.5-60.4c-1.6-2.3-4.3-3.7-7.1-3.7h-66.3c-4.8 0-8.7 3.9-8.7 8.7v60.4c0 4.8 3.9 8.7 8.7 8.7h108.8c7 .1 11.2-7.9 7.1-13.7z"/>
</symbol><symbol id="ico-mono-calc" viewBox="0 0 512 512">
    <path d="M124.1 258.4h47.8v47.4h-47.8z"/>
    <path d="M124.1 379.1h47.8v47.4h-47.8z"/>
    <path d="M232.1 258.4h47.8v47.4h-47.8z"/>
    <path d="M232.1 379.1h47.8v47.4h-47.8z"/>
    <path d="M340.1 258.4h47.8v168h-47.8z"/>
    <path d="M432.9 0H79.1C58.8 0 42.4 16.5 42.4 36.7v438.6c0 20.2 16.5 36.7 36.7 36.7h353.8c20.2 0 36.7-16.5 36.7-36.7V36.7c0-20.2-16.4-36.7-36.7-36.7zM210.8 172.7h-96.7c-5.5 0-10-4.5-10-10V77.3c0-5.5 4.5-10 10-10h283.7c5.5 0 10 4.5 10 10v85.5c0 5.5-4.5 10-10 10h-96.7M191.9 436.4c0 5.5-4.5 10-10 10h-67.8c-5.5 0-10-4.5-10-10V369c0-5.5 4.5-10 10-10h67.8c5.5 0 10 4.5 10 10v67.4zm0-120.6c0 5.5-4.5 10-10 10h-67.8c-5.5 0-10-4.5-10-10v-67.4c0-5.5 4.5-10 10-10h67.8c5.5 0 10 4.5 10 10v67.4zm108 120.6c0 5.5-4.5 10-10 10h-67.8c-5.5 0-10-4.5-10-10V369c0-5.5 4.5-10 10-10h67.8c5.5 0 10 4.5 10 10v67.4zm0-120.6c0 5.5-4.5 10-10 10h-67.8c-5.5 0-10-4.5-10-10v-67.4c0-5.5 4.5-10 10-10h67.8c5.5 0 10 4.5 10 10v67.4zm108 120.6c0 5.5-4.5 10-10 10h-67.8c-5.5 0-10-4.5-10-10v-188c0-5.5 4.5-10 10-10h67.8c5.5 0 10 4.5 10 10v188z"/>
</symbol><symbol id="ico-mono-call" viewBox="0 0 58 58">
    <g fill-rule="nonzero">
        <path d="M24.017 33.983c-5.536-5.536-6.786-11.072-7.068-13.29a1.988 1.988 0 01.571-1.664L22 14.551a2 2 0 00.282-2.475L15.149 1a2 2 0 00-2.591-.729L1.107 5.664a1.989 1.989 0 00-1.1 1.987c.6 5.7 3.085 19.712 16.855 33.483s27.78 16.255 33.483 16.855a1.989 1.989 0 001.987-1.1l5.393-11.451A2 2 0 0057 42.851L45.924 35.72a2 2 0 00-2.475.28l-4.478 4.48c-.436.439-1.05.65-1.664.571-2.218-.282-7.754-1.532-13.29-7.068z"/>
        <path d="M46 31a2 2 0 01-2-2c-.01-8.28-6.72-14.99-15-15a2 2 0 110-4c10.489.012 18.988 8.511 19 19a2 2 0 01-2 2z"/>
        <path d="M56 31a2 2 0 01-2-2C53.985 15.2 42.8 4.015 29 4a2 2 0 110-4c16.009.018 28.982 12.991 29 29a2 2 0 01-2 2z"/>
    </g>
</symbol><symbol id="ico-mono-cart" viewBox="0 0 64 64">
    <g data-name="shopping &#xB7; cart &#xB7; ecommerce &#xB7; add &#xB7; online">
        <path d="M51 8a11.007 11.007 0 00-11 11 10.665 10.665 0 00.43 3H17.36l-1.17-11.11A3.2 3.2 0 0013 8H5a2.922 2.922 0 00-2.11.88 2.966 2.966 0 00-.81 2.8A3.133 3.133 0 005.16 14h4.95l3.77 34.01A5 5 0 0014 58h5.1a5 5 0 009.8 0h10.2a5 5 0 009.8 0H53a1 1 0 000-2h-4.1a5 5 0 00-9.8 0H28.9a5 5 0 00-9.8 0H14a3 3 0 010-6h38.35a2.99 2.99 0 002.94-2.43l4.13-21.51A10.987 10.987 0 0051 8zm-7 46a3 3 0 11-3 3 3.009 3.009 0 013-3zm-20 0a3 3 0 11-3 3 3.009 3.009 0 013-3zm29.33-6.81a1 1 0 01-.98.81H15.9l-3.81-34.23A2 2 0 0010.1 12H5.16a1.131 1.131 0 01-1.13-.77.949.949 0 01.28-.94A.928.928 0 015 10h8a1.213 1.213 0 011.2 1.1l1.27 12a1 1 0 00.99.9h24.75a11.116 11.116 0 001.31 2H16.85a1 1 0 00-.74.33 1.036 1.036 0 00-.26.77l1.77 18a1 1 0 00.99.9H51a1 1 0 00.99-.84l2.63-15.78a11.639 11.639 0 002.35-1.15zM36 38v-4h7.22l-.45 4zm6.55 2l-.45 4H36v-4zM36 32v-4h7.88l-.44 4zm-8.77 6l-.45-4H34v4zM34 40v4h-6.1l-.45-4zm-7.44-8l-.44-4H34v4zm-1.79 2l.45 4h-6.29l-.39-4zm-6.43-2l-.39-4h6.15l.45 4zm7.1 8l.44 4h-6.36l-.39-4zm26.38-6l-.67 4h-6.37l.45-4zm-6.37-2l.37-3.3a10.631 10.631 0 006.69 1.18L52.15 32zm5.37 8l-.67 4h-6.03l.44-4zM51 28a9 9 0 119-9 9.014 9.014 0 01-9 9z"/>
        <path d="M50 20v5a1 1 0 002 0v-5h5a1 1 0 000-2h-5v-5a1 1 0 00-2 0v5h-5a1 1 0 000 2z"/>
    </g>
</symbol><symbol id="ico-mono-check" viewBox="0 0 72 72">
    <path d="M12.634 28.665s15.35 2.038 19.834 6.52c21.328-23.773 38.31-25.267 38.31-25.267S47.003 24.997 33.282 60.181c-5.027-24.588-20.65-31.516-20.65-31.516z"/>
    <path d="M67.514 18.588l-3.916 3.04A30.816 30.816 0 0167.109 36c0 17.155-13.955 31.11-31.109 31.11C18.846 67.11 4.89 53.154 4.89 36 4.89 18.846 18.847 4.89 36 4.89c6.703 0 13.086 2.098 18.46 6.067.218.16.432.325.645.491l3.969-3.082a36.154 36.154 0 00-1.708-1.343C51.144 2.428 43.756 0 36 0 16.15 0 0 16.15 0 36s16.15 36 36 36 36-16.15 36-36a35.656 35.656 0 00-4.486-17.412z"/>
</symbol><symbol id="ico-mono-hand" viewBox="0 0 24 24">
    <path d="M23.491 1.826L18.241.04a.737.737 0 00-.482 0l-5.25 1.786a.749.749 0 00-.509.71v4.018c0 4.904 5.474 7.288 5.707 7.387a.763.763 0 00.586-.001C18.526 13.842 24 11.458 24 6.554V2.536a.749.749 0 00-.509-.71zm-2.205 3.792l-2.75 3.5a.997.997 0 01-1.436.141l-1.75-1.5a1 1 0 111.301-1.518l.958.821 2.105-2.679a.998.998 0 011.404-.168c.434.34.51.969.168 1.403z"/>
    <path d="M.492 12.002a.5.5 0 00-.492.5v9.248c0 .138.112.25.25.25h2.372a.5.5 0 00.481-.363l2.213-7.798a1 1 0 00-.62-1.213c-.906-.33-2.296-.656-4.204-.624z"/>
    <path d="M22 17.5c-2 0-6 2.531-8 2.531S9.75 18.5 9.75 18.5s2.694.5 4.25.5 2-.531 2-1.25c0-1.75-2.972-2.022-4.476-2.251-1.476-.822-2.243-1.472-4.688-1.679a2.41 2.41 0 01-.076.426l-2.009 7.08C7.026 22.361 10.944 24 13 24c3 0 11-4 11-5s-1-1.5-2-1.5z"/>
</symbol><symbol id="ico-mono-help" viewBox="0 0 512 512">
    <path d="M256 0C123.362 0 16 107.337 16 239.992c0 58.156 20.91 113.886 59 157.591v99.4c0 13.318 16.167 20.048 25.606 10.606l51.305-51.303C311.302 532.973 496 416.449 496 239.992 496 107.358 388.659 0 256 0zm36.288 363.389h-71.862v-63.387h71.862v63.387zm58.619-160.322c-5.533 9.3-16.834 20.658-33.9 34.077-11.891 9.418-19.395 16.98-22.512 22.688-3.121 5.711-4.68 13.154-4.68 22.335h-67.094v-6.709c0-11.416 1.294-20.686 3.884-27.809 2.588-7.12 6.445-13.623 11.565-19.51 5.12-5.885 16.625-16.244 34.519-31.076 9.534-7.769 14.302-14.89 14.302-21.364 0-6.473-1.916-11.504-5.738-15.097-3.827-3.589-9.623-5.385-17.393-5.385-8.358 0-15.272 2.767-20.746 8.299-5.474 5.534-8.978 15.185-10.506 28.957l-68.508-8.475c2.354-25.188 11.504-45.466 27.456-60.827 15.949-15.361 40.403-23.042 73.363-23.042 25.659 0 46.376 5.357 62.151 16.067 21.422 14.479 32.135 33.785 32.135 57.914.001 10.007-2.767 19.66-8.298 28.957z"/>
</symbol><symbol id="ico-mono-next" viewBox="-74 0 362 362.667">
    <path d="M213.668 181.332c0 4.27-1.281 8.535-3.629 11.734l-106.664 160c-3.84 5.762-10.242 9.602-17.707 9.602h-64c-11.734 0-21.336-9.602-21.336-21.336 0-4.266 1.281-8.531 3.629-11.73l98.773-148.27L3.961 33.066C1.613 29.867.332 25.602.332 21.332.332 9.602 9.934 0 21.668 0h64c7.465 0 13.867 3.84 17.707 9.602l106.664 160c2.348 3.199 3.629 7.464 3.629 11.73zm0 0"/>
</symbol><symbol id="ico-mono-prodact" viewBox="0 0 69 69">
    <path d="M56.455 0h-43.91c-3.45 0-6.272 2.823-6.272 6.273v40.459c0 2.195.94 4.077 2.823 5.332L34.5 69l25.405-16.936c1.568-1.255 2.822-3.137 2.822-5.332V6.272c0-3.45-2.822-6.272-6.272-6.272zM28.228 47.045L12.545 31.364l4.39-4.391 11.291 11.29 23.837-23.836 4.39 4.391-28.227 28.227z"/>
</symbol><symbol id="ico-mono-quality" viewBox="0 0 92 92">
    <path d="M40.8 71.9c-3.6 3.3-8.5 4.1-12.9 1.9-1.6-.8-2.9-1.8-4-3.1l-6 13.3c-.3.6 0 1.1.2 1.2.1.2.5.5 1.2.4l4.4-1.2c.5-.1 1-.2 1.5-.2 2.1 0 4.1 1.2 5 3.1l2 4.1c.3.6.8.7 1.1.7.2 0 .8-.1 1-.7l9.5-21.1c-1.2.2-2.2.8-3 1.6z"/>
    <path d="M74.1 84l-6-13.3c-1.1 1.3-2.4 2.3-4 3.1-4.4 2.1-9.4 1.4-12.9-1.9-.8-.8-1.8-1.3-2.9-1.6l9.5 21.1c.3.6.8.7 1 .7.2 0 .8-.1 1.1-.7l2-4.1c.9-2 2.9-3.1 5-3.1.5 0 1 .1 1.5.2l4.4 1.2c.6.2 1-.2 1.2-.4.1-.2.4-.6.1-1.2z"/>
    <path d="M78.9 37.3c-5-3.4-6.5-10.2-3.5-15.4 1.8-3.1.9-6.2-.6-8.1-1.5-1.9-4.3-3.5-7.8-2.4-5.8 1.8-12-1.2-14.2-6.9C51.4 1.2 48.4 0 46 0c-2.4 0-5.4 1.2-6.7 4.6-2.2 5.6-8.5 8.6-14.2 6.9-3.5-1.1-6.3.5-7.8 2.4s-2.4 5-.6 8.1c3 5.2 1.5 12-3.5 15.4-3 2-3.5 5.3-3 7.6s2.4 5 6 5.5c6 .9 10.3 6.3 9.8 12.3-.3 3.6 1.9 6 4.1 7 2.1 1 5.4 1.3 8-1.2 2.2-2 5.1-3.1 7.9-3.1 2.8 0 5.7 1 7.9 3.1 2.7 2.5 5.9 2.2 8 1.2 2.1-1 4.3-3.4 4.1-7-.4-6 3.9-11.4 9.8-12.3 3.6-.5 5.4-3.2 6-5.5.5-2.4 0-5.6-2.9-7.7zM46 60.4c-13 0-23.7-10.6-23.7-23.7S33 13.1 46 13.1s23.7 10.6 23.7 23.7c0 13-10.7 23.6-23.7 23.6z"/>
    <path d="M46 17.5c-10.6 0-19.2 8.6-19.2 19.2S35.4 56 46 56s19.2-8.6 19.2-19.2c0-10.7-8.6-19.3-19.2-19.3zm9.9 17.3l-12 8.7c-.4.4-.9.5-1.3.5h-.4c-.6-.1-1.1-.4-1.4-.9L37.2 38c-.7-1-.5-2.4.5-3.1 1-.7 2.4-.5 3.1.5l2.3 3.3 10.2-7.4c1-.7 2.4-.5 3.1.5.7.9.4 2.3-.5 3z"/>
</symbol><symbol id="ico-mono-scale" viewBox="0 0 464.985 464.985">
    <path d="M457.145 218.479L386.092 75.327a10.972 10.972 0 00-9.404-5.747l-4.702 1.045h-91.951c-6.798-26.257-33.594-42.032-59.851-35.235a49.11 49.11 0 00-35.235 35.235H92.998l-4.702-1.045a10.972 10.972 0 00-9.404 5.747L7.839 218.479a9.927 9.927 0 00-7.837 9.927c0 43.886 39.706 79.935 88.294 79.935s88.816-36.049 88.816-79.935a10.45 10.45 0 00-7.837-9.927L106.06 91.523h78.367a48.586 48.586 0 0037.616 37.616v183.38c-33.959 4.18-60.604 29.78-64.784 55.902h-22.988a12.54 12.54 0 00-11.494 11.494v41.796c.545 5.745 5.645 9.96 11.39 9.414l.104-.01h196.441c5.739.603 10.881-3.561 11.483-9.3l.01-.104v-41.796a12.54 12.54 0 00-11.494-11.494h-22.988c-4.18-26.122-30.825-51.722-64.784-55.902V129.14a48.586 48.586 0 0037.616-37.616h78.367l-63.216 126.955a10.45 10.45 0 00-7.837 9.927c0 43.886 39.706 79.935 88.816 79.935s88.294-36.049 88.294-79.935a9.92 9.92 0 00-7.834-9.927zM88.296 286.397c-32.914 0-60.604-22.465-66.351-48.588H155.17c-5.747 26.123-33.437 48.588-66.874 48.588zm57.47-69.486H31.349l56.947-114.416 57.47 114.416zm175.543 172.408v20.898H143.676v-20.898h177.633zm-35.004-20.898H178.68c4.18-20.898 26.645-36.571 53.812-36.571s49.633 15.673 53.813 36.571zm-53.813-258.612c-15.581 0-28.212-12.631-28.212-28.212s12.631-28.212 28.212-28.212 28.212 12.631 28.212 28.212c.001 15.581-12.631 28.212-28.212 28.212zm144.196-7.314l56.947 114.416H319.219l57.469-114.416zm0 183.902c-33.437 0-61.127-22.465-66.873-48.588h133.224c-5.747 26.123-33.436 48.588-66.351 48.588z"/>
</symbol><symbol id="ico-mono-tel" viewBox="0 0 31 31">
    <path d="M12.837 18.163c-2.959-2.959-3.627-5.918-3.778-7.103a1.063 1.063 0 01.305-.889l2.394-2.393a1.07 1.07 0 00.151-1.323L8.097.535a1.07 1.07 0 00-1.385-.39L.592 3.027c-.399.196-.633.62-.588 1.062.321 3.047 1.649 10.536 9.009 17.896 7.36 7.36 14.848 8.688 17.896 9.009.442.045.866-.189 1.062-.588l2.882-6.12a1.07 1.07 0 00-.387-1.383l-5.92-3.811a1.07 1.07 0 00-1.323.15l-2.393 2.395a1.065 1.065 0 01-.889.305c-1.187-.152-4.146-.82-7.104-3.779z"/>
    <path d="M24.586 16.569a1.07 1.07 0 01-1.069-1.069A8.026 8.026 0 0015.5 7.483a1.07 1.07 0 010-2.138c5.606.006 10.149 4.549 10.155 10.155a1.07 1.07 0 01-1.069 1.069z"/>
    <path d="M29.931 16.569a1.07 1.07 0 01-1.069-1.069C28.854 8.124 22.876 2.146 15.5 2.138A1.07 1.07 0 0115.5 0C24.056.009 30.99 6.943 31 15.5c0 .283-.113.555-.313.756-.201.2-.473.313-.756.313z"/>
</symbol><symbol id="ico-mono-time" viewBox="0 0 337.461 259.615">
    
    <mask maskUnits="userSpaceOnUse" id="c">
        <g filter="url(#a)">
            <linearGradient id="b" gradientUnits="userSpaceOnUse" x1="-4232.977" y1="-931.827" x2="-4383.717" y2="-1033.098" gradientTransform="rotate(172.885 134.105 -150.904)">
                <stop offset="0" stop-color="#fff"/>
                <stop offset="1" stop-color="#231f20"/>
            </linearGradient>
            <path d="M4779.419 100.16l-157.03 19.613 11.166 89.401 157.029-19.612z"/>
        </g>
    </mask>
    
    <mask maskUnits="userSpaceOnUse" id="f">
        <g filter="url(#d)">
            <linearGradient id="e" gradientUnits="userSpaceOnUse" x1="5504.065" y1="-530.456" x2="5018.242" y2="-856.846" gradientTransform="rotate(82.883 985.847 -3934.963)">
                <stop offset="0" stop-color="#fff"/>
                <stop offset="1" stop-color="#231f20"/>
            </linearGradient>
            <path d="M-1777.083 277.024l63.209 506.097 288.134-35.987-63.209-506.094z"/>
        </g>
    </mask>
    
    <mask maskUnits="userSpaceOnUse" id="i">
        <g filter="url(#g)">
            <linearGradient id="h" gradientUnits="userSpaceOnUse" x1="5765.893" y1="2041.797" x2="5280.069" y2="1715.407" gradientTransform="rotate(-7.115 -12620.722 57198.882)">
                <stop offset="0" stop-color="#fff"/>
                <stop offset="1" stop-color="#231f20"/>
            </linearGradient>
            <path d="M-1902.907 132.851l506.097-63.209-35.987-288.135-506.094 63.209z"/>
        </g>
    </mask>
    <path d="M93.352 92.218H36.455a7 7 0 110-14h56.897a7 7 0 110 14z"/>
    <path d="M84.913 138.199H7a7 7 0 110-14h77.913a7 7 0 110 14z"/>
    <path d="M96.406 184.18H21.727a7 7 0 110-14h74.679a7 7 0 110 14z"/>
    <path d="M207.653 0c-31.747 0-61.918 11.406-85.616 32.238H68.091a7 7 0 100 14h56.63c.744 0 1.46-.118 2.133-.333l.469.487C149.006 25.504 177.535 14 207.653 14c63.856 0 115.808 51.951 115.808 115.807S271.51 245.615 207.653 245.615c-27.588 0-54.309-9.861-75.24-27.769l-.001.001a6.968 6.968 0 00-4.55-1.687H68.091a7 7 0 100 14h57.225c23.155 19.011 52.287 29.454 82.337 29.454 71.576 0 129.808-58.231 129.808-129.808C337.461 58.232 279.229 0 207.653 0z"/>
    <path d="M207.653 30.944c-54.601 0-98.864 44.263-98.864 98.864s44.263 98.864 98.864 98.864c54.601 0 98.864-44.263 98.864-98.864s-44.263-98.864-98.864-98.864zm60.144 55.078l-44.066 40.372c.233 1.102.36 2.242.36 3.413 0 9.078-7.359 16.438-16.438 16.438-9.078 0-16.438-7.359-16.438-16.438 0-2.06.396-4.024 1.088-5.841l-23.222-26.057a7 7 0 1110.451-9.314l22.86 25.651a16.39 16.39 0 015.261-.875c2.726 0 5.29.674 7.553 1.848L258.34 75.7c2.852-2.613 7.278-2.418 9.89.433s2.417 7.278-.433 9.889z"/>
</symbol><symbol id="ico-mono-user" viewBox="0 0 80.13 80.13">
    <path d="M48.355 17.922c3.705 2.323 6.303 6.254 6.776 10.817a11.69 11.69 0 004.966 1.112c6.491 0 11.752-5.261 11.752-11.751 0-6.491-5.261-11.752-11.752-11.752-6.429.002-11.644 5.169-11.742 11.574zm-7.699 24.062c6.491 0 11.752-5.262 11.752-11.752s-5.262-11.751-11.752-11.751c-6.49 0-11.754 5.262-11.754 11.752s5.264 11.751 11.754 11.751zm4.985.801h-9.972c-8.297 0-15.047 6.751-15.047 15.048v12.195l.031.191.84.263c7.918 2.474 14.797 3.299 20.459 3.299 11.059 0 17.469-3.153 17.864-3.354l.785-.397h.084V57.833c.003-8.297-6.747-15.048-15.044-15.048zm19.443-12.132h-9.895a14.483 14.483 0 01-4.47 10.088c7.375 2.193 12.771 9.032 12.771 17.11v3.758c9.77-.358 15.4-3.127 15.771-3.313l.785-.398h.084V45.699c0-8.296-6.75-15.046-15.046-15.046zm-45.049-.8c2.299 0 4.438-.671 6.25-1.814a14.544 14.544 0 015.467-9.276c.012-.22.033-.438.033-.66 0-6.491-5.262-11.752-11.75-11.752-6.492 0-11.752 5.261-11.752 11.752 0 6.488 5.26 11.75 11.752 11.75zm10.554 10.888a14.492 14.492 0 01-4.467-10.032c-.367-.027-.73-.056-1.104-.056h-9.971C6.75 30.653 0 37.403 0 45.699v12.197l.031.188.84.265c6.352 1.983 12.021 2.897 16.945 3.185v-3.683c.002-8.078 5.396-14.915 12.773-17.11z"/>
</symbol><symbol id="ico-mono-video" viewBox="0 0 480 480">
    <path d="M400 40H0v400h480V40h-80zM64 424H16v-48h48v48zm0-64H16v-48h48v48zm0-64H16v-48h48v48zm0-64H16v-48h48v48zm0-64H16v-48h48v48zm0-64H16V56h48v48zm336 320H80V56h320v368zm64 0h-48v-48h48v48zm0-64h-48v-48h48v48zm0-64h-48v-48h48v48zm0-64h-48v-48h48v48zm0-64h-48v-48h48v48zm0-64h-48V56h48v48z"/>
    <path d="M302.971 236.003a7.999 7.999 0 00-2.971-2.971l-112-64A8 8 0 00176 176v128a8 8 0 0012 6.92l112-64a8 8 0 002.971-10.917zM192 290.208V189.792L279.872 240 192 290.208z"/>
</symbol><symbol id="ico-mono-word" viewBox="0 0 512 512">
    <path d="M496 80.011H288v-48c0-4.768-2.112-9.28-5.792-12.32-3.648-3.04-8.544-4.352-13.152-3.392l-256 48A15.955 15.955 0 000 80.011v352c0 7.68 5.472 14.304 13.056 15.712l256 48c.96.192 1.952.288 2.944.288 3.712 0 7.328-1.28 10.208-3.68a16.006 16.006 0 005.792-12.32v-48h208c8.832 0 16-7.168 16-16v-320c0-8.832-7.168-16-16-16zm-272.096 113.76l-16 144.032c-.832 7.328-6.592 13.184-13.92 14.08a13.77 13.77 0 01-1.984.128 16.044 16.044 0 01-14.976-10.368L144 253.579l-33.024 88.064c-2.56 6.848-9.28 11.04-16.704 10.272-7.264-.768-13.088-6.4-14.112-13.664l-16-112c-1.248-8.736 4.832-16.832 13.568-18.08 8.768-1.28 16.864 4.832 18.112 13.568l7.136 50.048 26.016-69.408c4.672-12.48 25.28-12.48 29.984 0l24.512 65.344 8.608-77.504c.992-8.768 9.12-15.04 17.664-14.112 8.8.992 15.104 8.896 14.144 17.664zM480 400.011H288v-32h144c8.832 0 16-7.168 16-16s-7.168-16-16-16H288v-32h144c8.832 0 16-7.168 16-16s-7.168-16-16-16H288v-32h144c8.832 0 16-7.168 16-16s-7.168-16-16-16H288v-32h144c8.832 0 16-7.168 16-16s-7.168-16-16-16H288v-32h192v288z"/>
</symbol></svg>